<svg xmlns="http://www.w3.org/2000/svg" data-name="Layer 1" viewBox="0 0 128 160" x="0px" y="0px"><title>115 Web Icon Set 61 expanded</title><path d="M29.39557,101.59058a51.59462,51.59462,0,0,0,15.29254,9.83771,52.77426,52.77426,0,0,0,9.48346-.08069l.01154.00995c.0694-.00665.13922-.0188.20868-.02576.23761-.02374.47614-.06128.71405-.08807.82568-.093,1.65155-.196,2.47913-.32629.07837-.01233.15649-.01831.23492-.03094l-.03241-.00513c.81885-.1319,1.63794-.26917,2.45624-.43719-5.47833-2.37689-10.29395-9.27515-13.53357-18.715A45.82574,45.82574,0,0,1,62,88.58838v21.46936q2.00977-.47754,4-1.10345V88.632a45.79239,45.79239,0,0,1,15.94379,3.79016,43.28531,43.28531,0,0,1-6.81451,12.79956,54.4259,54.4259,0,0,0,7.95795-4.99323,56.93022,56.93022,0,0,0,2.5437-5.97815c.87726.48566,1.74524.99292,2.59442,1.54071q1.43546-1.42438,2.756-2.97546c-1.32458-.88147-2.68689-1.68488-4.07513-2.42529A81.49393,81.49393,0,0,0,89.23,80.14246a5.99253,5.99253,0,0,1,.39624-2.69464A101.2499,101.2499,0,0,0,90.446,66h7.02478l2.81317-4H90.45a91.14016,91.14016,0,0,0-3.56976-24.064,49.70389,49.70389,0,0,0,10.80249-7.31189,47.19,47.19,0,0,1,11.72589,18.53046A5.989,5.989,0,0,1,113.02,47.35492,51.24829,51.24829,0,0,0,99.30219,26.65527a1.50341,1.50341,0,0,0-.57764-.50513,51.60314,51.60314,0,0,0-15.69128-9.60278,52.62338,52.62338,0,0,0-8.91736.0733l-.00421-.00336c-.075.00677-.15033.02-.22528.027q-1.40186.13358-2.80945.33673c-.1264.01837-.25244.035-.37885.05426q-.83679.12753-1.67383.27863c.02362.00226.04694.00574.07056.00806-.50549.09143-1.01117.16577-1.5163.27112,5.74506,1.83685,10.84662,8.637,14.29791,18.21741A45.18835,45.18835,0,0,1,66,39.08618V17.94043q-2.00977.47736-4,1.10333V39.006A45.195,45.195,0,0,1,47.15979,35.4704c2.12982-5.8028,4.86243-10.57318,7.98358-13.79041a55.48239,55.48239,0,0,0-8.3952,4.7652,54.045,54.045,0,0,0-3.29333,7.23993Q41.81448,32.8,40.23169,31.77258q-1.45267,1.40506-2.79236,2.93652a49.57064,49.57064,0,0,0,4.719,2.8089A90.75924,90.75924,0,0,0,38.45984,62h-7.9306l-2.81317,4h10.7312a92.32629,92.32629,0,0,0,3.29541,23.55,48.7382,48.7382,0,0,0-11.239,7.54877A47.12189,47.12189,0,0,1,19.13617,78.19342a5.99667,5.99667,0,0,1-3.4502,2.33185,51.2292,51.2292,0,0,0,13.17365,20.57825,1.541,1.541,0,0,0,.53595.48706ZM83.17981,88.59943A49.84479,49.84479,0,0,0,66,84.63257V66H86.445A87.781,87.781,0,0,1,83.17981,88.59943Zm-6.80115-69.9881a47.45452,47.45452,0,0,1,18.30725,9.3299A45.67,45.67,0,0,1,85.60358,34.098C83.21851,27.58356,80.064,22.26605,76.37866,18.61133Zm6.74194,21.015A87.43331,87.43331,0,0,1,86.44861,62H66V43.09009A49.16975,49.16975,0,0,0,83.12061,39.62634Zm-37.22815-.355A49.10019,49.10019,0,0,0,62,43.02032V62H42.47015A87.19345,87.19345,0,0,1,45.89246,39.2713ZM42.44989,66H62V84.59338a49.87372,49.87372,0,0,0-16.47833,3.3111A88.3281,88.3281,0,0,1,42.44989,66Zm10.04547,43.82562a47.47379,47.47379,0,0,1-19.06219-9.97986,44.80827,44.80827,0,0,1,9.52557-6.44556C45.37433,100.33667,48.64313,105.9939,52.49536,109.82562Z"/><path d="M34.43457,49.49316a1.99964,1.99964,0,0,0-1.17676-3.09668l-6.94043-1.63477C37.06055,20.45215,65.42969,9.52344,87.41016,13.041a1.99989,1.99989,0,0,0,1.043-3.83789,60.58331,60.58331,0,0,0-47.877,1.4541A59.94792,59.94792,0,0,0,9.42578,44.1748L2.459,42.5332a2.00034,2.00034,0,0,0-2.3125,2.69824l12.26465,30.2168a2.00022,2.00022,0,0,0,1.627,1.23535,1.95758,1.95758,0,0,0,.22656.0127,1.99992,1.99992,0,0,0,1.63574-.84961ZM14.73828,70.5459,5.30859,47.31445l4.93555,1.16211a1.99959,1.99959,0,0,0,2.35059-1.2959A56.7397,56.7397,0,0,1,69.39648,9.06641a65.50408,65.50408,0,0,0-20.207,6.56934C36.33984,22.27051,26.5791,32.85742,21.70508,45.44727a1.999,1.999,0,0,0,1.40625,2.668l6.35059,1.49609Z"/><path d="M115.58887,52.55176a1.99984,1.99984,0,0,0-3.48926-.39844L93.56543,78.50684a1.99964,1.99964,0,0,0,1.17676,3.09668l6.94043,1.63477c-10.74219,24.31055-39.10645,35.24316-61.09277,31.7207a1.99989,1.99989,0,0,0-1.043,3.83789,60.583,60.583,0,0,0,47.877-1.4541A59.94792,59.94792,0,0,0,118.57422,83.8252l6.9668,1.6416a2.00034,2.00034,0,0,0,2.3125-2.69824Zm2.167,26.97168a1.99858,1.99858,0,0,0-2.35059,1.2959,56.016,56.016,0,0,1-29.66309,32.89453,56.58506,56.58506,0,0,1-27.13867,5.21973,65.50408,65.50408,0,0,0,20.207-6.56934c12.84961-6.63477,22.61035-17.22168,27.48438-29.81152a1.999,1.999,0,0,0-1.40625-2.668l-6.35059-1.49609L113.26172,57.4541l9.42969,23.23145Z"/><polygon points="112.141 66 112.413 66 112.313 65.755 112.141 66"/><polygon points="15.687 62.245 15.859 62 15.587 62 15.687 62.245"/><text x="0" y="143" fill="#000000" font-size="5px" font-weight="bold" font-family="'Helvetica Neue', Helvetica, Arial-Unicode, Arial, Sans-serif">Created by Creative Mahira</text><text x="0" y="148" fill="#000000" font-size="5px" font-weight="bold" font-family="'Helvetica Neue', Helvetica, Arial-Unicode, Arial, Sans-serif">from the Noun Project</text></svg>